<?xml version="1.0" encoding="UTF-8" standalone="no"?>
<!-- Created with Inkscape (http://www.inkscape.org/) -->

<svg
   width="20.316023"
   height="20.281071"
   viewBox="0 0 5.3752814 5.3660337"
   version="1.1"
   id="svg1"
   xml:space="preserve"
   inkscape:version="1.4.3 (0d15f75, 2025-12-25)"
   sodipodi:docname="ico-bold.svg"
   xmlns:inkscape="http://www.inkscape.org/namespaces/inkscape"
   xmlns:sodipodi="http://sodipodi.sourceforge.net/DTD/sodipodi-0.dtd"
   xmlns="http://www.w3.org/2000/svg"
   xmlns:svg="http://www.w3.org/2000/svg"><sodipodi:namedview
     id="namedview1"
     pagecolor="#ffffff"
     bordercolor="#000000"
     borderopacity="0.25"
     inkscape:showpageshadow="2"
     inkscape:pageopacity="0.0"
     inkscape:pagecheckerboard="0"
     inkscape:deskcolor="#d1d1d1"
     inkscape:document-units="px"
     inkscape:zoom="6.3668026"
     inkscape:cx="30.470554"
     inkscape:cy="6.0469914"
     inkscape:window-width="1727"
     inkscape:window-height="988"
     inkscape:window-x="1"
     inkscape:window-y="38"
     inkscape:window-maximized="0"
     inkscape:current-layer="layer1"
     showgrid="false"
     showguides="true"><sodipodi:guide
       position="444.71429,265.40131"
       orientation="1,0"
       id="guide16"
       inkscape:locked="false" /><sodipodi:guide
       position="142.2387,261.11367"
       orientation="0,-1"
       id="guide236"
       inkscape:locked="false" /><sodipodi:guide
       position="177.40488,233.2009"
       orientation="0,-1"
       id="guide272"
       inkscape:locked="false" /><sodipodi:guide
       position="118.14556,246.98835"
       orientation="0,-1"
       id="guide275"
       inkscape:locked="false" /><sodipodi:guide
       position="419.64812,278.19079"
       orientation="0,-1"
       id="guide297"
       inkscape:locked="false" /><sodipodi:guide
       position="-59.974925,237.44331"
       orientation="0,-1"
       id="guide301"
       inkscape:locked="false" /><sodipodi:guide
       position="2.9653454,270.93332"
       orientation="0,-1"
       id="guide349"
       inkscape:locked="false" /><sodipodi:guide
       position="2.6876404,265.56733"
       orientation="0,-1"
       id="guide350"
       inkscape:locked="false" /><inkscape:page
       x="0"
       y="0"
       width="5.3752813"
       height="5.3660336"
       id="page2"
       margin="0"
       bleed="0" /></sodipodi:namedview><defs
     id="defs1" /><g
     inkscape:label="Layer 1"
     inkscape:groupmode="layer"
     id="layer1"
     transform="translate(515.93246,-19.031106)"><path
       id="circle453"
       style="fill:#000000;fill-opacity:1;stroke:none;stroke-width:0.98773;stroke-linecap:square;stroke-dasharray:none;stroke-opacity:1"
       d="m -515.2864,19.031109 v 0.925225 1.276715 6.84e-4 0.03556 0.967623 1.276715 0.883512 h 2.51924 a 1.5638721,1.5638721 0 0 0 1.56392,-1.563925 1.5638721,1.5638721 0 0 0 -0.59493,-1.225428 1.5638721,1.5638721 0 0 0 0.3768,-1.012756 1.5638721,1.5638721 0 0 0 -1.56394,-1.563925 z m 1.14611,0.925225 h 1.15498 a 0.63833878,0.63833878 0 0 1 0.63803,0.6387 0.63833878,0.63833878 0 0 1 -0.63803,0.638015 h -1.15498 z m 0,2.280581 h 1.37313 a 0.63833878,0.63833878 0 0 1 0.63801,0.638016 0.63833878,0.63833878 0 0 1 -0.63801,0.638699 h -1.37313 z" /></g></svg>
