<?xml version="1.0" encoding="UTF-8" standalone="no"?>
<!-- Created with Inkscape (http://www.inkscape.org/) -->

<svg
   width="20.316023"
   height="20.281071"
   viewBox="0 0 5.3752814 5.3660337"
   version="1.1"
   id="svg1"
   xml:space="preserve"
   inkscape:version="1.4.3 (0d15f75, 2025-12-25)"
   sodipodi:docname="ico-home.svg"
   xmlns:inkscape="http://www.inkscape.org/namespaces/inkscape"
   xmlns:sodipodi="http://sodipodi.sourceforge.net/DTD/sodipodi-0.dtd"
   xmlns="http://www.w3.org/2000/svg"
   xmlns:svg="http://www.w3.org/2000/svg"><sodipodi:namedview
     id="namedview1"
     pagecolor="#ffffff"
     bordercolor="#000000"
     borderopacity="0.25"
     inkscape:showpageshadow="2"
     inkscape:pageopacity="0.0"
     inkscape:pagecheckerboard="0"
     inkscape:deskcolor="#d1d1d1"
     inkscape:document-units="px"
     inkscape:zoom="0.76031543"
     inkscape:cx="188.07983"
     inkscape:cy="-3.288109"
     inkscape:window-width="1727"
     inkscape:window-height="988"
     inkscape:window-x="1"
     inkscape:window-y="38"
     inkscape:window-maximized="0"
     inkscape:current-layer="layer1"
     showgrid="false"
     showguides="true"><sodipodi:guide
       position="444.71429,265.40131"
       orientation="1,0"
       id="guide16"
       inkscape:locked="false" /><sodipodi:guide
       position="142.2387,261.11367"
       orientation="0,-1"
       id="guide236"
       inkscape:locked="false" /><sodipodi:guide
       position="177.40488,233.2009"
       orientation="0,-1"
       id="guide272"
       inkscape:locked="false" /><sodipodi:guide
       position="118.14556,246.98835"
       orientation="0,-1"
       id="guide275"
       inkscape:locked="false" /><sodipodi:guide
       position="419.64812,278.19079"
       orientation="0,-1"
       id="guide297"
       inkscape:locked="false" /><sodipodi:guide
       position="-59.974925,237.44331"
       orientation="0,-1"
       id="guide301"
       inkscape:locked="false" /><sodipodi:guide
       position="2.9653454,270.93332"
       orientation="0,-1"
       id="guide349"
       inkscape:locked="false" /><sodipodi:guide
       position="2.6876404,265.56733"
       orientation="0,-1"
       id="guide350"
       inkscape:locked="false" /><inkscape:page
       x="0"
       y="0"
       width="5.3752813"
       height="5.3660336"
       id="page2"
       margin="0"
       bleed="0" /></sodipodi:namedview><defs
     id="defs1" /><g
     inkscape:label="Layer 1"
     inkscape:groupmode="layer"
     id="layer1"
     transform="translate(515.93246,-19.031106)"><path
       id="path319-0"
       style="fill:#ffffff;fill-opacity:1;stroke-width:0.0430306"
       d="m -513.31296,19.03386 c -0.21756,0.06886 -0.33622,0.28921 -0.51578,0.418263 -0.6834,0.649857 -1.39021,1.278372 -2.0496,1.951497 -0.0978,0.224886 -0.0241,0.478164 -0.0509,0.715438 0.005,0.682371 -0.0198,1.367469 0.0193,2.048086 0.0688,0.206889 0.31317,0.249463 0.50278,0.222916 0.40198,0.0022 0.80395,0.0037 1.20591,0.0043 0.0113,-0.566246 -0.019,-1.135705 0.0246,-1.699852 0.0734,-0.247413 0.37213,-0.24119 0.5812,-0.229461 0.36574,0.01333 0.73906,-0.03278 1.09969,0.02962 0.23324,0.09106 0.20422,0.373997 0.20237,0.577579 0.001,0.440703 0.003,0.881405 0.005,1.322108 0.50035,-0.0075 1.00391,0.01895 1.50211,-0.02234 0.19596,-0.07024 0.24731,-0.298621 0.22031,-0.483392 0.005,-0.806197 0.0241,-1.616544 -0.017,-2.4201 -0.1224,-0.244918 -0.37607,-0.384081 -0.5528,-0.585855 -0.65483,-0.611986 -1.29752,-1.239072 -1.97042,-1.830279 -0.0644,-0.02902 -0.13765,-0.02064 -0.20616,-0.01855 z" /></g></svg>
