<?xml version="1.0" encoding="UTF-8" standalone="no"?>
<!-- Created with Inkscape (http://www.inkscape.org/) -->

<svg
   width="20.313322"
   height="20.280979"
   viewBox="0 0 5.3745669 5.3660094"
   version="1.1"
   id="svg1"
   xml:space="preserve"
   inkscape:version="1.4.3 (0d15f75, 2025-12-25)"
   sodipodi:docname="ico-archive.svg"
   xmlns:inkscape="http://www.inkscape.org/namespaces/inkscape"
   xmlns:sodipodi="http://sodipodi.sourceforge.net/DTD/sodipodi-0.dtd"
   xmlns="http://www.w3.org/2000/svg"
   xmlns:svg="http://www.w3.org/2000/svg"><sodipodi:namedview
     id="namedview1"
     pagecolor="#ffffff"
     bordercolor="#000000"
     borderopacity="0.25"
     inkscape:showpageshadow="2"
     inkscape:pageopacity="0.0"
     inkscape:pagecheckerboard="0"
     inkscape:deskcolor="#d1d1d1"
     inkscape:document-units="px"
     inkscape:zoom="0.76031543"
     inkscape:cx="30.250603"
     inkscape:cy="151.91064"
     inkscape:window-width="1727"
     inkscape:window-height="988"
     inkscape:window-x="1"
     inkscape:window-y="38"
     inkscape:window-maximized="0"
     inkscape:current-layer="layer1"
     showgrid="false"
     showguides="true"><sodipodi:guide
       position="444.7135,265.40139"
       orientation="1,0"
       id="guide16"
       inkscape:locked="false" /><sodipodi:guide
       position="142.23791,261.11375"
       orientation="0,-1"
       id="guide236"
       inkscape:locked="false" /><sodipodi:guide
       position="177.40409,233.20098"
       orientation="0,-1"
       id="guide272"
       inkscape:locked="false" /><sodipodi:guide
       position="118.14477,246.98843"
       orientation="0,-1"
       id="guide275"
       inkscape:locked="false" /><sodipodi:guide
       position="419.64733,278.19087"
       orientation="0,-1"
       id="guide297"
       inkscape:locked="false" /><sodipodi:guide
       position="-59.975705,237.44339"
       orientation="0,-1"
       id="guide301"
       inkscape:locked="false" /><sodipodi:guide
       position="2.9645649,270.9334"
       orientation="0,-1"
       id="guide349"
       inkscape:locked="false" /><sodipodi:guide
       position="2.6868599,265.56741"
       orientation="0,-1"
       id="guide350"
       inkscape:locked="false" /><inkscape:page
       x="0"
       y="0"
       width="5.374567"
       height="5.3660092"
       id="page2"
       margin="0"
       bleed="0" /></sodipodi:namedview><defs
     id="defs1" /><g
     inkscape:label="Layer 1"
     inkscape:groupmode="layer"
     id="layer1"
     transform="translate(515.93167,-19.03122)"><path
       id="path319-2-8"
       style="fill:#ffffff;fill-opacity:1;stroke:none;stroke-width:0.0430321;stroke-opacity:0.503049"
       d="m -513.20802,19.031586 c -0.0348,-0.0013 -0.0703,0.0012 -0.10435,0.0022 -0.21725,0.06904 -0.33612,0.289224 -0.51556,0.418186 -0.68342,0.649879 -1.38986,1.27875 -2.04928,1.951897 -0.0977,0.224895 -0.0246,0.477911 -0.0514,0.715193 0.005,0.682394 -0.0195,1.367554 0.0195,2.048195 0.0687,0.206896 0.31349,0.249439 0.50312,0.222888 0.12847,7.03e-4 0.25666,0.0016 0.38518,0.0022 v -2.587564 h 3.55215 v 2.591352 c 0.22802,-3.15e-4 0.45612,-0.005 0.68273,-0.0238 0.19597,-0.07024 0.24717,-0.298869 0.22018,-0.483647 0.005,-0.806224 0.0238,-1.616272 -0.0173,-2.419856 -0.12248,-0.244927 -0.37613,-0.384113 -0.55288,-0.585895 -0.65485,-0.612008 -1.29738,-1.239488 -1.97031,-1.830716 -0.0323,-0.0145 -0.0668,-0.01928 -0.10167,-0.02055 z m -1.53912,3.095014 c 0,0.193772 -2e-5,0.387797 0,0.581568 h 3.00465 V 22.1266 Z m 0,0.84449 c 0,0.193773 -2e-5,0.387794 0,0.581565 h 3.00465 V 22.97109 Z m 0,0.845028 c 0,0.193772 -2e-5,0.387254 0,0.581026 h 3.00465 v -0.581026 z" /></g></svg>
