<?xml version="1.0" encoding="UTF-8" standalone="no"?>
<!-- Created with Inkscape (http://www.inkscape.org/) -->

<svg
   width="20.278864"
   height="20.280924"
   viewBox="0 0 5.3654498 5.3659948"
   version="1.1"
   id="svg1"
   xml:space="preserve"
   inkscape:version="1.4.3 (0d15f75, 2025-12-25)"
   sodipodi:docname="ico-copy.svg"
   xmlns:inkscape="http://www.inkscape.org/namespaces/inkscape"
   xmlns:sodipodi="http://sodipodi.sourceforge.net/DTD/sodipodi-0.dtd"
   xmlns="http://www.w3.org/2000/svg"
   xmlns:svg="http://www.w3.org/2000/svg"><sodipodi:namedview
     id="namedview1"
     pagecolor="#ffffff"
     bordercolor="#000000"
     borderopacity="0.25"
     inkscape:showpageshadow="2"
     inkscape:pageopacity="0.0"
     inkscape:pagecheckerboard="0"
     inkscape:deskcolor="#d1d1d1"
     inkscape:document-units="px"
     inkscape:zoom="7.533534"
     inkscape:cx="6.2387719"
     inkscape:cy="-0.73006905"
     inkscape:window-width="1727"
     inkscape:window-height="988"
     inkscape:window-x="1"
     inkscape:window-y="38"
     inkscape:window-maximized="0"
     inkscape:current-layer="layer1"
     showgrid="false"
     showguides="true"><sodipodi:guide
       position="444.70937,265.40131"
       orientation="1,0"
       id="guide16"
       inkscape:locked="false" /><sodipodi:guide
       position="142.23378,261.11367"
       orientation="0,-1"
       id="guide236"
       inkscape:locked="false" /><sodipodi:guide
       position="177.39996,233.2009"
       orientation="0,-1"
       id="guide272"
       inkscape:locked="false" /><sodipodi:guide
       position="118.14064,246.98835"
       orientation="0,-1"
       id="guide275"
       inkscape:locked="false" /><sodipodi:guide
       position="419.6432,278.19079"
       orientation="0,-1"
       id="guide297"
       inkscape:locked="false" /><sodipodi:guide
       position="-59.97984,237.44331"
       orientation="0,-1"
       id="guide301"
       inkscape:locked="false" /><sodipodi:guide
       position="2.96043,270.93332"
       orientation="0,-1"
       id="guide349"
       inkscape:locked="false" /><sodipodi:guide
       position="2.682725,265.56733"
       orientation="0,-1"
       id="guide350"
       inkscape:locked="false" /><inkscape:page
       x="0"
       y="0"
       width="5.3654499"
       height="5.3659949"
       id="page2"
       margin="0"
       bleed="0" /></sodipodi:namedview><defs
     id="defs1" /><g
     inkscape:label="Layer 1"
     inkscape:groupmode="layer"
     id="layer1"
     transform="translate(515.92754,-19.031149)"><path
       id="rect387"
       style="fill:#ffffff;fill-opacity:1;stroke:none;stroke-width:0.189787;stroke-linecap:square;stroke-dasharray:none;stroke-opacity:1"
       d="M -514.06926 19.031149 A 0.521944 0.52194463 0 0 0 -514.59119 19.553081 A 0.521944 0.52194463 0 0 0 -514.59119 19.566517 L -514.59119 22.930653 A 0.52194463 0.521944 0 0 0 -514.06874 23.452585 L -511.48492 23.452585 A 0.521944 0.52194463 0 0 0 -511.4689 23.453102 A 0.521944 0.52194463 0 0 0 -510.94748 22.930653 L -510.94697 22.930653 L -510.94697 20.579375 L -512.49467 19.031149 L -514.06874 19.031149 A 0.521944 0.52194463 0 0 0 -514.06926 19.031149 z M -514.06874 19.553081 L -513.54732 19.553081 L -512.66417 19.553081 L -512.66417 20.748357 L -511.4689 20.748357 L -511.4689 22.409238 L -511.4689 22.930653 L -511.99135 22.930653 L -513.54732 22.930653 L -514.06874 22.930653 L -514.06874 22.408721 L -514.06874 19.553081 z M -515.54255 20.497209 L -515.54255 23.866513 A 0.52194463 0.521944 0 0 0 -515.54255 23.875298 A 0.52194463 0.521944 0 0 0 -515.02062 24.39723 L -512.42078 24.39723 L -512.42078 23.875298 L -514.49869 23.875298 L -515.02062 23.875298 L -515.02062 23.353366 L -515.02062 20.497209 L -515.54255 20.497209 z " /></g></svg>
