<?xml version="1.0" encoding="UTF-8" standalone="no"?>
<!-- Created with Inkscape (http://www.inkscape.org/) -->

<svg
   width="20.278864"
   height="20.280924"
   viewBox="0 0 5.3654498 5.3659948"
   version="1.1"
   id="svg1"
   xml:space="preserve"
   inkscape:version="1.4.3 (0d15f75, 2025-12-25)"
   sodipodi:docname="ico-user.svg"
   inkscape:export-filename="../apps/web/public/img/ico-nut.svg"
   inkscape:export-xdpi="96"
   inkscape:export-ydpi="96"
   xmlns:inkscape="http://www.inkscape.org/namespaces/inkscape"
   xmlns:sodipodi="http://sodipodi.sourceforge.net/DTD/sodipodi-0.dtd"
   xmlns="http://www.w3.org/2000/svg"
   xmlns:svg="http://www.w3.org/2000/svg"><sodipodi:namedview
     id="namedview1"
     pagecolor="#ffffff"
     bordercolor="#000000"
     borderopacity="0.25"
     inkscape:showpageshadow="2"
     inkscape:pageopacity="0.0"
     inkscape:pagecheckerboard="0"
     inkscape:deskcolor="#d1d1d1"
     inkscape:document-units="px"
     inkscape:zoom="0.76031543"
     inkscape:cx="88.121321"
     inkscape:cy="41.430173"
     inkscape:window-width="1727"
     inkscape:window-height="988"
     inkscape:window-x="1"
     inkscape:window-y="38"
     inkscape:window-maximized="0"
     inkscape:current-layer="layer1"
     showgrid="false"
     showguides="true"><sodipodi:guide
       position="444.70937,265.40131"
       orientation="1,0"
       id="guide16"
       inkscape:locked="false" /><sodipodi:guide
       position="142.23378,261.11367"
       orientation="0,-1"
       id="guide236"
       inkscape:locked="false" /><sodipodi:guide
       position="177.39996,233.2009"
       orientation="0,-1"
       id="guide272"
       inkscape:locked="false" /><sodipodi:guide
       position="118.14064,246.98835"
       orientation="0,-1"
       id="guide275"
       inkscape:locked="false" /><sodipodi:guide
       position="419.6432,278.19079"
       orientation="0,-1"
       id="guide297"
       inkscape:locked="false" /><sodipodi:guide
       position="-59.97984,237.44331"
       orientation="0,-1"
       id="guide301"
       inkscape:locked="false" /><sodipodi:guide
       position="2.96043,270.93332"
       orientation="0,-1"
       id="guide349"
       inkscape:locked="false" /><sodipodi:guide
       position="2.682725,265.56733"
       orientation="0,-1"
       id="guide350"
       inkscape:locked="false" /><inkscape:page
       x="0"
       y="0"
       width="5.3654499"
       height="5.3659949"
       id="page2"
       margin="0"
       bleed="0" /></sodipodi:namedview><defs
     id="defs1" /><g
     inkscape:label="Layer 1"
     inkscape:groupmode="layer"
     id="layer1"
     transform="translate(515.92754,-19.031149)"><path
       id="path335-0"
       style="fill:#ffffff;fill-opacity:1;stroke:none;stroke-width:0.29716;stroke-linecap:square;stroke-dasharray:none;stroke-opacity:1"
       d="m -513.24481,19.031424 a 2.6827199,2.6827199 0 0 0 -2.68273,2.682723 2.6827199,2.6827199 0 0 0 2.68273,2.682722 2.6827199,2.6827199 0 0 0 2.68272,-2.682722 2.6827199,2.6827199 0 0 0 -2.68272,-2.682723 z m 0,0.352328 a 2.3307608,2.3307608 0 0 1 2.33104,2.330395 2.3307608,2.3307608 0 0 1 -0.42061,1.327513 2.3307608,2.3307608 0 0 0 -1.91043,-1.00417 2.3307608,2.3307608 0 0 0 -1.91044,1.00417 2.3307608,2.3307608 0 0 1 -0.41995,-1.327513 2.3307608,2.3307608 0 0 1 2.33039,-2.330395 z m 0,0.578414 a 0.86765573,0.86765573 0 0 0 -0.86762,0.867617 0.86765573,0.86765573 0 0 0 0.86762,0.867617 0.86765573,0.86765573 0 0 0 0.86761,-0.867617 0.86765573,0.86765573 0 0 0 -0.86761,-0.867617 z" /></g></svg>
