<?xml version="1.0" encoding="UTF-8" standalone="no"?>
<!-- Created with Inkscape (http://www.inkscape.org/) -->

<svg
   width="20.278864"
   height="20.280924"
   viewBox="0 0 5.3654498 5.3659948"
   version="1.1"
   id="svg1"
   xml:space="preserve"
   inkscape:version="1.4.3 (0d15f75, 2025-12-25)"
   sodipodi:docname="ico-search.svg"
   xmlns:inkscape="http://www.inkscape.org/namespaces/inkscape"
   xmlns:sodipodi="http://sodipodi.sourceforge.net/DTD/sodipodi-0.dtd"
   xmlns="http://www.w3.org/2000/svg"
   xmlns:svg="http://www.w3.org/2000/svg"><sodipodi:namedview
     id="namedview1"
     pagecolor="#ffffff"
     bordercolor="#000000"
     borderopacity="0.25"
     inkscape:showpageshadow="2"
     inkscape:pageopacity="0.0"
     inkscape:pagecheckerboard="0"
     inkscape:deskcolor="#d1d1d1"
     inkscape:document-units="px"
     inkscape:zoom="5.8828758"
     inkscape:cx="16.998489"
     inkscape:cy="20.653164"
     inkscape:window-width="1727"
     inkscape:window-height="988"
     inkscape:window-x="1"
     inkscape:window-y="38"
     inkscape:window-maximized="0"
     inkscape:current-layer="layer1"
     showgrid="false"
     showguides="true"><sodipodi:guide
       position="444.70937,265.40131"
       orientation="1,0"
       id="guide16"
       inkscape:locked="false" /><sodipodi:guide
       position="142.23378,261.11367"
       orientation="0,-1"
       id="guide236"
       inkscape:locked="false" /><sodipodi:guide
       position="177.39996,233.2009"
       orientation="0,-1"
       id="guide272"
       inkscape:locked="false" /><sodipodi:guide
       position="118.14064,246.98835"
       orientation="0,-1"
       id="guide275"
       inkscape:locked="false" /><sodipodi:guide
       position="419.6432,278.19079"
       orientation="0,-1"
       id="guide297"
       inkscape:locked="false" /><sodipodi:guide
       position="-59.97984,237.44331"
       orientation="0,-1"
       id="guide301"
       inkscape:locked="false" /><sodipodi:guide
       position="2.96043,270.93332"
       orientation="0,-1"
       id="guide349"
       inkscape:locked="false" /><sodipodi:guide
       position="2.682725,265.56733"
       orientation="0,-1"
       id="guide350"
       inkscape:locked="false" /><inkscape:page
       x="0"
       y="0"
       width="5.3654499"
       height="5.3659949"
       id="page2"
       margin="0"
       bleed="0" /></sodipodi:namedview><defs
     id="defs1" /><g
     inkscape:label="Layer 1"
     inkscape:groupmode="layer"
     id="layer1"
     transform="translate(515.92754,-19.031149)"><path
       id="path237"
       style="fill:#ffffff;fill-opacity:1;stroke:none;stroke-width:0.172683;stroke-linecap:square;stroke-opacity:1"
       d="m -514.07175,19.031149 c -0.48316,0.01184 -0.96246,0.221549 -1.30398,0.569369 -0.27797,0.27993 -0.46534,0.651066 -0.5277,1.034397 -0.0559,0.331501 -0.0215,0.701538 0.11047,1.023951 0.22868,0.58875 0.76734,1.042414 1.38626,1.167916 0.50195,0.10784 1.04919,0.0037 1.47096,-0.289534 0.0562,-0.05354 0.13121,-0.0042 0.16739,0.04794 0.57698,0.573284 1.14835,1.15272 1.72725,1.723892 0.11924,0.101269 0.33438,0.137657 0.43713,-0.0049 0.0996,-0.150274 0.0139,-0.349949 -0.11332,-0.455006 -0.55902,-0.557713 -1.11547,-1.118801 -1.67609,-1.674406 -0.0717,-0.03761 -0.0541,-0.131664 -0.006,-0.182068 0.14659,-0.221667 0.24434,-0.486584 0.2851,-0.741187 0.10205,-0.616433 -0.1209,-1.274908 -0.57982,-1.699672 -0.36584,-0.347056 -0.87297,-0.539354 -1.37705,-0.520671 z m 0.0673,0.553692 c 0.41634,0.0035 0.82687,0.203147 1.07722,0.537528 0.30496,0.390455 0.36585,0.951191 0.15377,1.398681 -0.20894,0.464677 -0.69747,0.784787 -1.20705,0.790367 -0.45979,0.0136 -0.91577,-0.224991 -1.16643,-0.610845 -0.27705,-0.410027 -0.30045,-0.972886 -0.0591,-1.404779 0.22588,-0.422314 0.68817,-0.703272 1.16719,-0.709079 0.0114,-5.05e-4 0.0228,-0.0016 0.0344,-0.0019 z" /></g></svg>
