<?xml version="1.0" encoding="UTF-8" standalone="no"?>
<!-- Created with Inkscape (http://www.inkscape.org/) -->

<svg
   width="20.316023"
   height="20.281071"
   viewBox="0 0 5.3752814 5.3660337"
   version="1.1"
   id="svg1"
   xml:space="preserve"
   inkscape:version="1.4.3 (0d15f75, 2025-12-25)"
   sodipodi:docname="ico-bulletlist.svg"
   xmlns:inkscape="http://www.inkscape.org/namespaces/inkscape"
   xmlns:sodipodi="http://sodipodi.sourceforge.net/DTD/sodipodi-0.dtd"
   xmlns="http://www.w3.org/2000/svg"
   xmlns:svg="http://www.w3.org/2000/svg"><sodipodi:namedview
     id="namedview1"
     pagecolor="#ffffff"
     bordercolor="#000000"
     borderopacity="0.25"
     inkscape:showpageshadow="2"
     inkscape:pageopacity="0.0"
     inkscape:pagecheckerboard="0"
     inkscape:deskcolor="#d1d1d1"
     inkscape:document-units="px"
     inkscape:zoom="14.911153"
     inkscape:cx="7.9806033"
     inkscape:cy="12.23916"
     inkscape:window-width="1727"
     inkscape:window-height="988"
     inkscape:window-x="1"
     inkscape:window-y="38"
     inkscape:window-maximized="0"
     inkscape:current-layer="g418"
     showgrid="false"
     showguides="true"><sodipodi:guide
       position="444.71429,265.40131"
       orientation="1,0"
       id="guide16"
       inkscape:locked="false" /><sodipodi:guide
       position="142.2387,261.11367"
       orientation="0,-1"
       id="guide236"
       inkscape:locked="false" /><sodipodi:guide
       position="177.40488,233.2009"
       orientation="0,-1"
       id="guide272"
       inkscape:locked="false" /><sodipodi:guide
       position="118.14556,246.98835"
       orientation="0,-1"
       id="guide275"
       inkscape:locked="false" /><sodipodi:guide
       position="419.64812,278.19079"
       orientation="0,-1"
       id="guide297"
       inkscape:locked="false" /><sodipodi:guide
       position="-59.974925,237.44331"
       orientation="0,-1"
       id="guide301"
       inkscape:locked="false" /><sodipodi:guide
       position="2.9653454,270.93332"
       orientation="0,-1"
       id="guide349"
       inkscape:locked="false" /><sodipodi:guide
       position="2.6876404,265.56733"
       orientation="0,-1"
       id="guide350"
       inkscape:locked="false" /><inkscape:page
       x="0"
       y="0"
       width="5.3752813"
       height="5.3660336"
       id="page2"
       margin="0"
       bleed="0" /></sodipodi:namedview><defs
     id="defs1" /><g
     inkscape:label="Layer 1"
     inkscape:groupmode="layer"
     id="layer1"
     transform="translate(515.93246,-19.031106)"><g
       id="g418"
       style="display:inline;fill:#ffffff;fill-opacity:1"
       transform="matrix(0.95911014,0,0,0.95911014,-648.03394,70.892896)"><path
         id="path417"
         style="fill:#000000;fill-opacity:1;stroke:none;stroke-width:0.30176;stroke-linecap:square;stroke-dasharray:none;stroke-opacity:1"
         d="M 138.38748 -53.511934 A 0.46764174 0.46764174 0 0 0 137.9198 -53.044259 A 0.46764174 0.46764174 0 0 0 138.38748 -52.576585 A 0.46764174 0.46764174 0 0 0 138.85515 -53.044259 A 0.46764174 0.46764174 0 0 0 138.38748 -53.511934 z M 139.24362 -53.364304 L 139.24362 -52.724215 L 143.33793 -52.724215 L 143.33793 -53.364304 L 139.24362 -53.364304 z M 138.38748 -51.743068 A 0.46764174 0.46764174 0 0 0 137.9198 -51.275393 A 0.46764174 0.46764174 0 0 0 138.38748 -50.807718 A 0.46764174 0.46764174 0 0 0 138.85515 -51.275393 A 0.46764174 0.46764174 0 0 0 138.38748 -51.743068 z M 139.24362 -51.595438 L 139.24362 -50.955348 L 143.33793 -50.955348 L 143.33793 -51.595438 L 139.24362 -51.595438 z M 138.38748 -49.974202 A 0.46764174 0.46764174 0 0 0 137.9198 -49.506527 A 0.46764174 0.46764174 0 0 0 138.38748 -49.038852 A 0.46764174 0.46764174 0 0 0 138.85515 -49.506527 A 0.46764174 0.46764174 0 0 0 138.38748 -49.974202 z M 139.24362 -49.82711 L 139.24362 -49.186482 L 143.33793 -49.186482 L 143.33793 -49.82711 L 139.24362 -49.82711 z " /></g></g></svg>
