<?xml version="1.0" encoding="UTF-8" standalone="no"?>
<!-- Created with Inkscape (http://www.inkscape.org/) -->

<svg
   width="4.1106291"
   height="20.280888"
   viewBox="0 0 1.087604 5.3659852"
   version="1.1"
   id="svg1"
   xml:space="preserve"
   inkscape:version="1.4.3 (0d15f75, 2025-12-25)"
   sodipodi:docname="ico-dots.svg"
   xmlns:inkscape="http://www.inkscape.org/namespaces/inkscape"
   xmlns:sodipodi="http://sodipodi.sourceforge.net/DTD/sodipodi-0.dtd"
   xmlns="http://www.w3.org/2000/svg"
   xmlns:svg="http://www.w3.org/2000/svg"><sodipodi:namedview
     id="namedview1"
     pagecolor="#ffffff"
     bordercolor="#000000"
     borderopacity="0.25"
     inkscape:showpageshadow="2"
     inkscape:pageopacity="0.0"
     inkscape:pagecheckerboard="0"
     inkscape:deskcolor="#d1d1d1"
     inkscape:document-units="px"
     inkscape:zoom="0.76031543"
     inkscape:cx="469.54196"
     inkscape:cy="414.95935"
     inkscape:window-width="1727"
     inkscape:window-height="988"
     inkscape:window-x="1"
     inkscape:window-y="38"
     inkscape:window-maximized="0"
     inkscape:current-layer="layer1"
     showgrid="false"
     showguides="true"><sodipodi:guide
       position="442.57045,265.4013"
       orientation="1,0"
       id="guide16"
       inkscape:locked="false" /><sodipodi:guide
       position="140.09487,261.11366"
       orientation="0,-1"
       id="guide236"
       inkscape:locked="false" /><sodipodi:guide
       position="175.26105,233.20089"
       orientation="0,-1"
       id="guide272"
       inkscape:locked="false" /><sodipodi:guide
       position="116.00173,246.98834"
       orientation="0,-1"
       id="guide275"
       inkscape:locked="false" /><sodipodi:guide
       position="417.50428,278.19078"
       orientation="0,-1"
       id="guide297"
       inkscape:locked="false" /><sodipodi:guide
       position="-62.118752,237.4433"
       orientation="0,-1"
       id="guide301"
       inkscape:locked="false" /><sodipodi:guide
       position="0.82151703,270.93331"
       orientation="0,-1"
       id="guide349"
       inkscape:locked="false" /><sodipodi:guide
       position="0.54381204,265.56732"
       orientation="0,-1"
       id="guide350"
       inkscape:locked="false" /><inkscape:page
       x="0"
       y="0"
       width="1.087604"
       height="5.3659854"
       id="page2"
       margin="0"
       bleed="0" /></sodipodi:namedview><defs
     id="defs1" /><g
     inkscape:label="Layer 1"
     inkscape:groupmode="layer"
     id="layer1"
     transform="translate(513.78863,-19.031154)"><path
       id="circle46-3"
       style="display:inline;fill:#ffffff;fill-opacity:1;stroke-width:0.137911;stroke-linecap:square"
       d="m -513.3077,19.034337 c -0.35622,0.0313 -0.59366,0.463127 -0.42416,0.779425 0.13796,0.296006 0.55861,0.40582 0.81473,0.195579 0.25776,-0.184918 0.29429,-0.597789 0.0589,-0.815789 -0.11678,-0.115794 -0.28543,-0.177532 -0.44945,-0.159215 z m -0.002,2.141475 c -0.35498,0.03258 -0.59202,0.463223 -0.42268,0.779148 0.13958,0.300994 0.57153,0.408399 0.82578,0.187045 0.25128,-0.189859 0.27853,-0.598135 0.0436,-0.812235 -0.11797,-0.112255 -0.28401,-0.173115 -0.4467,-0.153958 z m 0.006,2.142094 c -0.32962,0.02344 -0.5628,0.400544 -0.46068,0.701733 0.10116,0.396324 0.70894,0.52046 0.94515,0.178335 0.22676,-0.263624 0.11049,-0.726877 -0.22116,-0.842552 -0.0834,-0.03295 -0.17403,-0.04486 -0.26331,-0.03752 z" /></g></svg>
