<?xml version="1.0" encoding="UTF-8" standalone="no"?>
<!-- Created with Inkscape (http://www.inkscape.org/) -->

<svg
   width="20.278864"
   height="20.280924"
   viewBox="0 0 5.3654498 5.3659948"
   version="1.1"
   id="svg1"
   xml:space="preserve"
   inkscape:version="1.4.3 (0d15f75, 2025-12-25)"
   sodipodi:docname="ico-link.svg"
   xmlns:inkscape="http://www.inkscape.org/namespaces/inkscape"
   xmlns:sodipodi="http://sodipodi.sourceforge.net/DTD/sodipodi-0.dtd"
   xmlns="http://www.w3.org/2000/svg"
   xmlns:svg="http://www.w3.org/2000/svg"><sodipodi:namedview
     id="namedview1"
     pagecolor="#ffffff"
     bordercolor="#000000"
     borderopacity="0.25"
     inkscape:showpageshadow="2"
     inkscape:pageopacity="0.0"
     inkscape:pagecheckerboard="0"
     inkscape:deskcolor="#d1d1d1"
     inkscape:document-units="px"
     inkscape:zoom="7.533534"
     inkscape:cx="6.2387719"
     inkscape:cy="-0.73006905"
     inkscape:window-width="1727"
     inkscape:window-height="988"
     inkscape:window-x="1"
     inkscape:window-y="38"
     inkscape:window-maximized="0"
     inkscape:current-layer="layer1"
     showgrid="false"
     showguides="true"><sodipodi:guide
       position="444.70937,265.40131"
       orientation="1,0"
       id="guide16"
       inkscape:locked="false" /><sodipodi:guide
       position="142.23378,261.11367"
       orientation="0,-1"
       id="guide236"
       inkscape:locked="false" /><sodipodi:guide
       position="177.39996,233.2009"
       orientation="0,-1"
       id="guide272"
       inkscape:locked="false" /><sodipodi:guide
       position="118.14064,246.98835"
       orientation="0,-1"
       id="guide275"
       inkscape:locked="false" /><sodipodi:guide
       position="419.6432,278.19079"
       orientation="0,-1"
       id="guide297"
       inkscape:locked="false" /><sodipodi:guide
       position="-59.97984,237.44331"
       orientation="0,-1"
       id="guide301"
       inkscape:locked="false" /><sodipodi:guide
       position="2.96043,270.93332"
       orientation="0,-1"
       id="guide349"
       inkscape:locked="false" /><sodipodi:guide
       position="2.682725,265.56733"
       orientation="0,-1"
       id="guide350"
       inkscape:locked="false" /><inkscape:page
       x="0"
       y="0"
       width="5.3654499"
       height="5.3659949"
       id="page2"
       margin="0"
       bleed="0" /></sodipodi:namedview><defs
     id="defs1" /><g
     inkscape:label="Layer 1"
     inkscape:groupmode="layer"
     id="layer1"
     transform="translate(515.92754,-19.031149)"><path
       id="path363"
       style="fill:#ffffff;fill-opacity:1;stroke:none;stroke-width:0.25975;stroke-linecap:square;stroke-dasharray:none;stroke-opacity:1"
       d="m -514.58619,20.372797 a 1.3413767,1.3413767 0 0 0 -1.34135,1.341349 1.3413767,1.3413767 0 0 0 1.34135,1.341349 h 0.78781 a 0.17322196,0.17322196 0 0 0 0.17318,-0.173181 v -0.197068 a 0.17322196,0.17322196 0 0 0 -0.17318,-0.173182 h -0.78781 a 0.79792426,0.79792426 0 0 1 -0.79792,-0.797918 0.79792426,0.79792426 0 0 1 0.79792,-0.797919 h 0.002 0.78644 a 0.17322196,0.17322196 0 0 0 0.17318,-0.173181 v -0.197068 a 0.17322196,0.17322196 0 0 0 -0.17318,-0.173181 z m 1.89488,0 a 0.17322196,0.17322196 0 0 0 -0.17318,0.173181 v 0.197068 a 0.17322196,0.17322196 0 0 0 0.17318,0.173181 h 0.78781 a 0.79792426,0.79792426 0 0 1 0.79792,0.797919 0.79792426,0.79792426 0 0 1 -0.79792,0.797918 h -0.002 -0.78643 a 0.17322196,0.17322196 0 0 0 -0.17318,0.173182 v 0.197068 a 0.17322196,0.17322196 0 0 0 0.17318,0.173181 h 0.78826 a 1.3413767,1.3413767 0 0 0 1.34136,-1.341349 1.3413767,1.3413767 0 0 0 -1.34136,-1.341349 z m -1.40382,1.069404 a 0.17322196,0.17322196 0 0 0 -0.17318,0.172262 v 8.89e-4 0.197068 a 0.17322196,0.17322196 0 0 0 0,8.89e-4 0.17322196,0.17322196 0 0 0 0.1672,0.172263 h 0.006 1.70057 a 0.17322196,0.17322196 0 0 0 0.17318,-0.173182 v -0.197068 a 0.17322196,0.17322196 0 0 0 -0.17318,-0.173181 z" /></g></svg>
