<?xml version="1.0" encoding="UTF-8" standalone="no"?>
<!-- Created with Inkscape (http://www.inkscape.org/) -->

<svg
   width="541.25299"
   height="318.2117"
   viewBox="0 0 143.20653 84.193518"
   version="1.1"
   id="svg1"
   xml:space="preserve"
   inkscape:version="1.4.3 (0d15f75, 2025-12-25)"
   sodipodi:docname="selogo.svg"
   xmlns:inkscape="http://www.inkscape.org/namespaces/inkscape"
   xmlns:sodipodi="http://sodipodi.sourceforge.net/DTD/sodipodi-0.dtd"
   xmlns:xlink="http://www.w3.org/1999/xlink"
   xmlns="http://www.w3.org/2000/svg"
   xmlns:svg="http://www.w3.org/2000/svg"><sodipodi:namedview
     id="namedview1"
     pagecolor="#ffffff"
     bordercolor="#000000"
     borderopacity="0.25"
     inkscape:showpageshadow="2"
     inkscape:pageopacity="0.0"
     inkscape:pagecheckerboard="0"
     inkscape:deskcolor="#d1d1d1"
     inkscape:document-units="px"
     inkscape:zoom="1.30749"
     inkscape:cx="235.56586"
     inkscape:cy="166.34927"
     inkscape:window-width="1728"
     inkscape:window-height="988"
     inkscape:window-x="0"
     inkscape:window-y="38"
     inkscape:window-maximized="0"
     inkscape:current-layer="layer1"
     showgrid="false" /><defs
     id="defs1"><linearGradient
       id="linearGradient73"
       inkscape:collect="always"><stop
         style="stop-color:#5d5d5d;stop-opacity:0.55454546;"
         offset="0.13473684"
         id="stop72" /><stop
         style="stop-color:#53baff;stop-opacity:0;"
         offset="1"
         id="stop73" /></linearGradient><linearGradient
       id="linearGradient49"
       inkscape:collect="always"><stop
         style="stop-color:#007ce5;stop-opacity:1;"
         offset="0"
         id="stop49" /><stop
         style="stop-color:#7900b2;stop-opacity:1;"
         offset="1"
         id="stop50" /></linearGradient><linearGradient
       inkscape:collect="always"
       xlink:href="#linearGradient49"
       id="linearGradient50"
       x1="81.839912"
       y1="34.286339"
       x2="150.75262"
       y2="92.841812"
       gradientUnits="userSpaceOnUse"
       gradientTransform="translate(-55.058506,73.998631)" /><radialGradient
       inkscape:collect="always"
       xlink:href="#linearGradient73"
       id="radialGradient67"
       cx="133.84615"
       cy="85.535881"
       fx="133.84615"
       fy="85.535881"
       r="38.937935"
       gradientTransform="matrix(2.1167163,-0.26701986,0.02696537,0.21375955,-152.16949,92.59069)"
       gradientUnits="userSpaceOnUse" /><radialGradient
       inkscape:collect="always"
       xlink:href="#linearGradient73"
       id="radialGradient73"
       gradientUnits="userSpaceOnUse"
       gradientTransform="matrix(2.0940054,-0.20031049,0.02558081,0.26741664,-144.45718,65.753823)"
       cx="129.76584"
       cy="71.188087"
       fx="129.76584"
       fy="71.188087"
       r="33.320705" /></defs><g
     inkscape:label="Layer 1"
     inkscape:groupmode="layer"
     id="layer1"
     transform="translate(-2.9300745,-93.369896)"><path
       id="circle76"
       style="fill:#ffffff;fill-opacity:1;stroke:none;stroke-width:0.289742;stroke-linecap:square;stroke-dasharray:none;stroke-opacity:1"
       d="M 51.304688,94.707031 C 40.399652,101.68057 29.494452,108.65385 18.587891,115.625 c 1.027469,1.52757 2.061839,3.05001 3.08789,4.57812 -0.544495,-0.30971 -1.09323,-0.62595 -1.103674,0.25963 -2.886114,9.36265 -5.771435,18.72554 -8.658045,28.08803 2.381981,0.73496 4.764352,1.46866 7.146485,2.20313 -1.749486,0.50622 -3.344335,1.69604 -4.014418,3.43308 -1.009697,2.15175 -1.721372,4.48828 -1.862055,6.86799 0.07691,2.50279 2.03218,4.32837 3.5815,6.07672 1.50003,1.65292 3.628565,3.0741 5.963461,2.72811 2.050406,-0.17766 4.068271,-0.69978 6.009246,-1.36176 1.481899,-0.69272 2.718672,-1.95178 3.269531,-3.50391 0.441397,-0.17367 0.759647,-0.30795 0.676606,0.30906 0.373262,2.85202 2.952811,5.17876 5.823907,5.28308 2.590007,0.18961 5.263402,-1.40865 6.106909,-3.90659 2.173053,2.65235 4.616918,5.06405 7.033204,7.49219 6.913641,-4.74813 14.419234,-8.65367 22.242187,-11.72657 7.347076,4.09893 14.278089,8.96173 20.572266,14.54102 0.940573,0.55858 1.844911,-0.26045 2.531429,-0.8333 4.37437,-3.20067 8.91989,-6.55422 11.66268,-11.34741 0.35456,-0.72218 0.61305,-1.48904 0.80003,-2.27046 9.84439,-1.44408 19.68886,-2.88763 29.5332,-4.33204 -1.5898,-9.91818 -3.17986,-19.83632 -4.77343,-29.7539 -1.59508,0.43949 -3.25201,0.9459 -4.8086,1.34375 0.5396,-0.79223 1.3145,-1.47388 1.9336,-2.23431 1.04383,-1.1691 2.08561,-2.34004 3.13086,-3.50788 -3.81115,-3.38856 -7.61959,-6.78018 -11.42969,-10.16992 1.81884,-0.0241 3.59476,-1.30436 3.93967,-3.13573 0.0863,-0.39478 0.18131,-0.86784 0.65026,-0.94064 2.04107,-1.09301 2.86731,-4.12074 1.29093,-5.93926 -0.59603,-0.78967 -0.44984,-1.88974 -1.13444,-2.63691 -0.7918,-1.07329 -2.11481,-1.75123 -3.45345,-1.720508 -1.64802,-1.653063 -4.65716,-1.526003 -6.13282,0.298829 -0.57736,0.634779 -1.41216,0.807529 -2.1914,1.037109 -1.67415,0.70943 -2.93584,2.5114 -2.71094,4.36328 -2.63509,-2.34867 -5.27287,-4.69433 -7.90625,-7.044921 -1.93623,2.175891 -3.86958,4.354361 -5.804686,6.531251 -5.973051,-4.08452 -13.706629,-5.511841 -20.734375,-3.76172 -6.983042,-3.136894 -15.428129,-2.775792 -22.121094,0.93945 -1.655114,-2.487886 -3.32241,-4.966501 -4.994141,-7.443356 -0.145182,0.0931 -0.290364,0.186198 -0.435546,0.279297 z"
       inkscape:label="white-outline" /><g
       id="g75"><circle
         style="fill:#010513;fill-opacity:1;stroke:none;stroke-width:0.289742;stroke-linecap:square;stroke-dasharray:none;stroke-opacity:1"
         id="circle75"
         cx="29.754019"
         cy="157.15881"
         r="4.4612632" /><path
         id="path73"
         style="fill:#010513;fill-opacity:1;stroke:none;stroke-width:0.803157;stroke-linecap:square;stroke-dasharray:none;stroke-opacity:1"
         d="m 88.244693,104.1224 a 21.820259,21.312122 8.4039328 0 1 16.591927,12.08066 l 10.11955,-1.48456 6.41055,21.22038 9.85675,-2.7865 3.51509,21.93295 -32.16915,4.71911 c 1.12142,0.73878 2.18539,1.48969 3.1816,2.25237 -0.83209,4.09409 -10.454299,10.77358 -10.454299,10.77358 C 83.757397,162.73219 69.401265,155.2625 56.581917,150.06104 l -5.28e-4,-9e-5 -34.77632,-2.9093 5.041946,-25.89199 -3.064598,-4.5539 26.904295,-17.204868 12.969299,19.271918 0.619697,0.0517 a 21.820259,21.312122 8.4039328 0 1 23.968993,-14.70224 z m -15.285431,38.69584 -0.591395,3.03642 c 3.357847,1.18836 6.808075,2.48487 10.218527,3.87653 l -0.551387,-3.43927 a 21.820259,21.312122 8.4039328 0 1 -0.02001,-0.003 21.820259,21.312122 8.4039328 0 1 -9.055854,-3.47074 z" /><path
         id="path44"
         style="fill:url(#linearGradient50);stroke:none;stroke-width:0.79375;stroke-linecap:square;stroke-dasharray:none;stroke-opacity:1"
         d="m 68.746784,102.48217 a 21.312122,21.312122 0 0 0 -17.75602,9.52603 l -9.56583,-2.94762 -9.22321,20.05562 -9.126059,-4.19716 -6.52725,21.18372 30.408999,9.36997 c -1.18899,0.56697 -2.324226,1.1543 -3.395659,1.7632 0.219565,4.17175 8.563299,12.18582 8.563299,12.18582 12.59107,-8.3033 27.5286,-13.59462 40.65747,-16.86667 h 5.2e-4 l 34.017046,2.20452 -1.17564,-26.35085 3.61115,-4.05712 -23.53965,-20.95221 -15.282276,17.1695 -0.60616,-0.0393 a 21.312122,21.312122 0 0 0 -21.06073,-18.04747 z m 9.24543,40.51432 0.13798,3.09025 c -3.41407,0.68484 -6.93284,1.46318 -10.42676,2.34146 l 1.02371,-3.32176 a 21.312122,21.312122 0 0 0 0.01964,0 21.312122,21.312122 0 0 0 9.24543,-2.10995 z" /><circle
         style="fill:#1299df;fill-opacity:1;stroke:none;stroke-width:0.163998;stroke-linecap:square;stroke-dasharray:none;stroke-opacity:1"
         id="circle48"
         cx="38.849316"
         cy="164.39841"
         r="2.5251331" /><path
         sodipodi:type="star"
         style="display:inline;fill:#a504b7;fill-opacity:1;stroke:none;stroke-width:0.79375;stroke-linecap:square;stroke-dasharray:none;stroke-opacity:1"
         id="path67"
         inkscape:flatsided="true"
         sodipodi:sides="6"
         sodipodi:cx="66.793419"
         sodipodi:cy="106.78369"
         sodipodi:r1="10.629142"
         sodipodi:r2="9.2051077"
         sodipodi:arg1="0.85425465"
         sodipodi:arg2="1.3778534"
         inkscape:rounded="0.15"
         inkscape:randomized="0"
         d="m 73.774435,114.79893 c -1.202286,1.04715 -8.923906,2.55575 -10.43191,2.03812 -1.508003,-0.51764 -6.675298,-6.45046 -6.981016,-8.01524 -0.305717,-1.56479 2.248608,-9.006206 3.450894,-10.053359 1.202286,-1.047152 8.923906,-2.555751 10.43191,-2.038117 1.508003,0.517634 6.675298,6.450456 6.981015,8.015236 0.305718,1.56479 -2.248607,9.00621 -3.450893,10.05336 z"
         transform="matrix(0.6280968,-0.01259946,0.01259946,0.6280968,-19.89207,93.569556)" /><path
         sodipodi:type="star"
         style="display:inline;fill:#010513;fill-opacity:1;stroke:none;stroke-width:0.79375;stroke-linecap:square;stroke-dasharray:none;stroke-opacity:1"
         id="path75"
         inkscape:flatsided="false"
         sodipodi:sides="5"
         sodipodi:cx="66.793419"
         sodipodi:cy="106.78369"
         sodipodi:r1="7.6529822"
         sodipodi:r2="10.629142"
         sodipodi:arg1="0.85425465"
         sodipodi:arg2="1.4825732"
         inkscape:rounded="0.14"
         inkscape:randomized="0"
         d="m 71.81975,112.55466 c -0.667094,0.58102 -3.208606,4.73889 -4.089811,4.81684 -0.881204,0.0779 -4.113095,-3.56925 -4.87182,-4.02415 -0.758724,-0.4549 -5.498462,-1.58717 -5.844899,-2.40116 -0.346437,-0.81399 2.123541,-5.01475 2.321719,-5.87691 0.198177,-0.86216 -0.18963,-5.719811 0.477464,-6.300829 0.667095,-0.581018 5.425517,0.469967 6.306721,0.392022 0.881205,-0.07794 5.381265,-1.947868 6.139989,-1.492967 0.758724,0.4549 1.229612,5.305204 1.576049,6.119184 0.346437,0.81399 3.515434,4.51597 3.317257,5.37813 -0.198177,0.86216 -4.665574,2.80883 -5.332669,3.38984 z"
         transform="matrix(0.37419013,-0.17480139,0.17480139,0.37419013,77.361788,78.082566)" /><path
         sodipodi:type="star"
         style="display:inline;fill:#d90e94;fill-opacity:1;stroke:none;stroke-width:0.79375;stroke-linecap:square;stroke-dasharray:none;stroke-opacity:1"
         id="path68"
         inkscape:flatsided="false"
         sodipodi:sides="5"
         sodipodi:cx="66.793419"
         sodipodi:cy="106.78369"
         sodipodi:r1="7.6529822"
         sodipodi:r2="10.629142"
         sodipodi:arg1="0.85425465"
         sodipodi:arg2="1.4825732"
         inkscape:rounded="0.14"
         inkscape:randomized="0"
         d="m 71.81975,112.55466 c -0.667094,0.58102 -3.208606,4.73889 -4.089811,4.81684 -0.881204,0.0779 -4.113095,-3.56925 -4.87182,-4.02415 -0.758724,-0.4549 -5.498462,-1.58717 -5.844899,-2.40116 -0.346437,-0.81399 2.123541,-5.01475 2.321719,-5.87691 0.198177,-0.86216 -0.18963,-5.719811 0.477464,-6.300829 0.667095,-0.581018 5.425517,0.469967 6.306721,0.392022 0.881205,-0.07794 5.381265,-1.947868 6.139989,-1.492967 0.758724,0.4549 1.229612,5.305204 1.576049,6.119184 0.346437,0.81399 3.515434,4.51597 3.317257,5.37813 -0.198177,0.86216 -4.665574,2.80883 -5.332669,3.38984 z"
         transform="matrix(0.26878128,-0.00539168,0.00539168,0.26878128,104.73415,77.390493)" /><path
         id="path38"
         style="display:inline;fill:#010513;fill-opacity:1;stroke:none;stroke-width:0.529167;stroke-linecap:square"
         d="m 164.34545,39.669933 c -0.24088,0.0052 -0.48155,0.01029 -0.72243,0.0155 -2.4798,0.05352 -4.95954,0.104419 -7.43934,0.15813 -1.08267,1.438822 -2.16516,2.878146 -3.24787,4.317049 -0.16976,-1.051359 -0.33998,-2.102935 -0.50953,-3.15433 l -1.02216,-0.836124 c -3.49677,0.213238 -6.99341,0.429215 -10.49031,0.640271 0.26249,0.31423 0.52441,0.629058 0.78651,0.943611 -0.34394,-0.210656 -0.72682,-0.350633 -1.12965,-0.398942 -0.12332,-0.01538 -0.24828,-0.02273 -0.37517,-0.01912 -4.59251,0.129886 -9.14522,0.827249 -13.69942,1.390613 0.79518,0.90928 1.58997,1.818992 2.38487,2.728516 -0.005,0.01689 -0.009,0.03375 -0.0134,0.05064 -0.1242,-0.147 -0.26062,-0.282323 -0.40876,-0.403077 l -1.01854,-0.832507 c -0.10536,-0.08612 -0.21655,-0.164881 -0.33383,-0.235128 -0.11439,-0.06851 -0.23403,-0.12952 -0.35967,-0.180867 -0.16871,-0.06916 -0.34782,-0.121787 -0.53692,-0.155546 -1.01541,-0.2778 -2.07831,-0.298859 -3.12384,-0.267167 -0.33844,0.02604 -0.67968,0.05589 -1.02216,0.09147 -1.66022,0.171934 -3.34736,0.47953 -4.85913,1.16427 0.0928,-0.303797 0.18561,-0.607814 0.27853,-0.911572 l -1.02216,-0.836125 c -0.27145,0.03516 -0.54296,0.07026 -0.81442,0.10542 -6.6082,0.859639 -13.21615,1.720767 -19.824112,2.582271 1.16465,1.259776 2.330578,2.517887 3.495911,3.777031 -1.517192,5.198409 -3.031904,10.397988 -4.550627,15.595948 l 1.02216,0.836125 c 1.089618,-0.235569 2.17902,-0.47141 3.268535,-0.70745 -0.02114,0.03269 -0.04201,0.06561 -0.06253,0.0987 -0.326197,0.525937 -0.573268,1.102448 -0.723986,1.706356 -0.582294,1.774719 -1.357023,3.512745 -1.70739,5.347477 -0.004,0.269934 0.0446,0.524764 0.134876,0.760161 0.06018,0.156944 0.13885,0.305157 0.23306,0.443383 0.04711,0.0691 0.09801,0.135555 0.152446,0.199471 0.05452,0.06403 0.112551,0.125485 0.173633,0.183969 0.04966,0.04755 0.10105,0.09321 0.154512,0.136942 l 1.008724,0.825273 c 0.539468,0.446146 1.2687,0.689871 1.966288,0.636137 0.18998,0.01605 0.38005,0.0281 0.57051,0.03669 -1.962821,0.366388 -3.925601,0.732693 -5.888531,1.098124 -0.848092,2.574941 -1.695872,5.149846 -2.544548,7.724594 l 1.02216,0.836125 c 5.304491,-1.304798 10.659599,-2.431797 15.893609,-3.997173 2.00746,-0.749117 3.69385,-2.328891 4.53357,-4.291728 0.0594,0.07035 0.12134,0.138276 0.18604,0.203605 0.0187,0.01885 0.0388,0.03585 0.0579,0.05426 0.0642,0.06195 0.13069,0.120776 0.19947,0.17725 8.6e-4,6.99e-4 0.002,0.0014 0.003,0.0021 l 0.94671,0.77773 c 0.432,0.37684 0.95757,0.643461 1.55804,0.740007 2.20136,0.506167 4.4203,-0.219135 6.58978,-0.553972 1.1813,-0.261623 2.26872,-0.829019 3.17449,-1.610237 l 0.84594,0.691947 c 2.28354,-0.352625 4.56698,-0.70674 6.84971,-1.064534 0.27197,-1.127159 0.50635,-2.296872 0.77773,-3.423564 0.26017,0.707388 0.52057,1.414925 0.78032,2.122351 l 1.02216,0.836125 c 2.35823,-0.347907 4.71588,-0.697678 7.07398,-1.046448 -0.3047,-0.671208 -0.62124,-1.34622 -0.93637,-2.020549 0.0667,0.0645 0.13649,0.126234 0.21032,0.185519 l 1.00149,0.819071 5.2e-4,5.17e-4 c 0.0928,0.07597 0.19139,0.147672 0.2961,0.214457 1.06607,0.771906 2.44587,0.768392 3.68246,0.517798 2.783,-0.313781 5.56563,-0.628528 8.33903,-1.019576 0.006,-0.02437 0.0125,-0.04849 0.0186,-0.07286 4.52074,-0.417358 9.04141,-0.836373 13.56197,-1.255737 0.47465,-1.889636 0.9474,-3.779159 1.41955,-5.669422 l -1.02216,-0.836125 v -5.17e-4 c -0.004,3.43e-4 -0.008,6.9e-4 -0.0119,0.001 l 1.05524,-4.497917 c 0.44941,-0.04252 0.89883,-0.08525 1.34824,-0.127641 0.46939,-1.864259 0.93513,-3.729593 1.40404,-5.593974 l -1.02216,-0.836125 c -0.001,1.03e-4 -0.002,4.15e-4 -0.004,5.17e-4 l -0.33538,0.02636 c -0.12651,0.01004 -0.25278,0.0204 -0.37931,0.03049 l -0.016,0.001 c -2.29607,0.182647 -4.59197,0.366264 -6.88795,0.549837 -1.60379,0.12816 -3.20774,0.256237 -4.81159,0.383956 1.47254,-5.024604 2.94498,-10.049345 4.4173,-15.074016 l -1.02216,-0.836125 z M 111.2753,57.776322 c 0.0304,0.247381 0.0741,0.493371 0.13281,0.736906 0.0494,0.204819 0.10897,0.408097 0.18087,0.609266 0.30182,0.768795 0.877,1.375073 1.57871,1.7663 0.0476,0.05646 0.0968,0.111585 0.1478,0.164848 -1.74354,0.210547 -3.48777,0.416195 -5.22759,0.65164 -1.1392,0.154165 -2.27599,0.322558 -3.40858,0.517281 0.33187,-1.195211 0.66336,-2.39012 0.99529,-3.585311 1.86702,-0.28661 3.73364,-0.574589 5.60069,-0.86093 z"
         inkscape:label="3D-boarder"
         transform="translate(-55.058505,73.998631)" /></g></g><g
     inkscape:groupmode="layer"
     id="layer2"
     inkscape:label="Text"
     transform="translate(-63.863393,-93.369896)"><g
       id="g20"
       style="display:inline;fill:#ffffff;fill-opacity:1"
       inkscape:label="form-surge"
       transform="translate(5.8748125,73.998631)"><path
         style="fill:#ffffff;fill-opacity:1;stroke:none;stroke-width:0.529167;stroke-linecap:square"
         d="m 96.28268,63.589603 6.02745,-1.305949 1.50687,-5.424704 6.52973,-1.004576 1.20549,-4.118758 -6.63019,0.904119 0.7032,-2.611896 7.93614,-1.205489 1.40641,-4.621046 -16.977323,2.210065 2.511443,2.712352 z"
         id="path1" /><path
         id="path2"
         style="fill:#ffffff;fill-opacity:1;stroke:none;stroke-width:0.529167;stroke-linecap:square"
         d="m 123.6177,44.475841 c -2.67812,0.02845 -6.08997,0.833972 -7.50342,2.059306 -2.38723,2.069517 -4.26946,8.909269 -3.75842,11.418942 0.37022,1.818127 1.41203,2.85578 5.4162,2.22002 3.03539,-0.481941 5.54868,-0.618805 7.30343,-3.549138 0.90563,-1.512341 4.06457,-8.639646 1.98024,-11.284066 -0.48825,-0.619455 -1.83116,-0.882136 -3.43803,-0.865064 z m -1.87224,3.899504 c 0.48389,0.0081 0.90621,0.127288 1.15136,0.396358 0.52111,0.571983 -1.16059,5.959244 -1.69016,6.67137 -0.81105,1.090621 -3.61369,1.356149 -3.89452,0.536976 -0.33305,-0.971499 1.32914,-6.157579 1.79318,-6.705534 0.49991,-0.590317 1.71636,-0.914588 2.64014,-0.89917 z"
         sodipodi:nodetypes="sssssssssssss" /><path
         id="path3"
         style="fill:#ffffff;fill-opacity:1;stroke:none;stroke-width:0.529167;stroke-linecap:square"
         d="m 140.16966,42.411367 c -2.81656,-0.0846 -11.57448,1.11001 -11.57448,1.11001 l 1.45572,1.663981 -3.58789,13.310817 4.57594,-0.623735 1.09193,-4.419885 1.71566,-0.10387 1.35185,3.900021 4.83588,-0.624252 -1.92391,-4.367692 c 0,0 1.01194,-0.300791 1.76785,-0.883667 1.00062,-0.771572 1.40422,-2.07998 2.13217,-4.679818 0.72796,-2.599841 -0.10431,-3.587989 -1.04025,-4.159953 -0.11699,-0.0715 -0.3981,-0.109871 -0.80047,-0.121957 z m -2.75481,4.00202 c 0.30968,0.468537 -0.21771,2.851235 -1.1726,3.362389 -0.96875,0.518574 -3.15898,0.486792 -3.15898,0.486792 l 1.00686,-3.688851 c 0.28023,-0.04819 3.01517,-0.628685 3.32472,-0.16033 z"
         sodipodi:nodetypes="scccccccccssssssccs" /><path
         style="fill:#ffffff;fill-opacity:1;stroke:none;stroke-width:0.529167;stroke-linecap:square"
         d="m 140.51877,56.372618 3.85398,-13.064337 -1.30644,-1.567723 7.44668,-0.45725 1.04515,6.466846 5.16041,-6.858776 6.20556,-0.130643 -4.11527,14.044163 -4.70316,0.261287 2.48223,-8.883751 -6.66282,9.341001 -0.9145,0.130643 -1.37176,-8.883748 -2.61286,9.275678 z"
         id="path4" /><path
         id="path5"
         style="fill:#ffffff;fill-opacity:1;stroke:none;stroke-width:0.529167;stroke-linecap:square"
         d="m 171.99873,55.759391 -11.78016,0.942061 -3.73052,14.7252 11.85871,-1.099157 0.87746,-3.501079 -7.23883,0.634587 0.58498,-2.313073 5.89421,-0.475388 0.70693,-3.140893 -5.77897,0.271301 0.478,-1.920813 7.26623,-0.684713 z"
         sodipodi:nodetypes="ccccccccccccc" /><path
         id="path7"
         style="fill:#ffffff;fill-opacity:1;stroke:none;stroke-width:0.529167;stroke-linecap:square"
         d="m 158.45175,57.015645 c 0,0 -0.52722,0.0051 -7.93233,0.746208 -1.40435,0.14054 -2.59131,0.186916 -4.00492,1.374076 -1.26865,1.065423 -2.00254,4.276709 -2.47375,5.808122 -0.4712,1.531414 -1.63479,5.420167 -0.45677,6.755247 1.17801,1.335079 2.19683,1.062798 3.22565,0.949398 6.20192,-0.683605 7.94974,-0.961647 7.94974,-0.961647 l 2.16431,-8.607691 -6.36499,0.533301 c 0,0 -0.24225,0.785115 0.30748,1.609721 0.54974,0.824608 1.14567,0.981852 1.14567,0.981852 l -0.54984,2.316654 c 0,0 -0.29959,0.03395 -2.56884,0.24288 -0.30936,0.02848 -0.74625,0.117766 -0.98185,-0.196371 -0.23559,-0.314135 -0.0351,-0.774223 0.0558,-1.145666 0.7318,-2.930601 0.82653,-3.197565 1.26323,-4.815988 0.0753,-0.279234 0.17984,-0.669756 0.44914,-0.942443 0.33225,-0.336432 0.77018,-0.289272 1.17512,-0.327112 4.29303,-0.401197 5.92141,-0.618111 6.68557,-0.704741 z"
         sodipodi:nodetypes="cssssscccsccsscssscc" /><path
         id="path8"
         style="fill:#ffffff;fill-opacity:1;stroke:none;stroke-width:0.529167;stroke-linecap:square"
         d="m 141.33032,58.890466 c -1.98164,-0.02227 -6.84334,0.637648 -9.58133,1.034562 l -3.82096,15.30501 4.56355,-0.709517 1.00872,-4.44004 1.71359,-0.135909 1.42472,3.874183 4.82348,-0.715202 -2.00608,-4.331002 c 0,0 1.01913,-0.303818 1.75132,-0.916223 0.94108,-0.787121 1.36482,-2.106036 2.0438,-4.719093 0.67898,-2.61306 -0.17176,-3.585522 -1.11828,-4.139799 -0.11832,-0.06929 -0.40001,-0.102447 -0.80253,-0.10697 z m -3.29334,3.885034 c 0.30445,0.005 0.53434,0.05233 0.61391,0.167949 0.31843,0.462635 -0.16385,2.854768 -1.10897,3.383773 -0.95883,0.536685 -3.14916,0.54622 -3.14916,0.54622 l 0.93741,-3.707268 c 0.20945,-0.04009 1.79344,-0.40558 2.70681,-0.390674 z"
         sodipodi:nodetypes="sccccccccsssssssccs" /><path
         id="path9"
         style="fill:#ffffff;fill-opacity:1;stroke:none;stroke-width:0.529167;stroke-linecap:square"
         d="m 130.15609,60.468024 -4.74583,0.701055 c -1.64268,6.347279 -2.4837,10.013536 -3.08456,10.847107 -0.69157,0.959412 -2.71686,1.358095 -3.11054,0.734351 -0.48671,-0.771155 0.63805,-4.280334 2.46655,-11.064756 l -4.75907,0.863811 c -2.07248,7.523233 -3.10983,10.963344 -2.75646,12.427172 0.43539,1.803629 1.92993,2.497852 5.10118,1.962268 3.1187,-0.52671 5.13409,-0.629006 6.90248,-3.291385 1.60796,-2.420842 2.27109,-6.333459 4.03083,-13.290972 z"
         sodipodi:nodetypes="ccssccssscc" /><path
         id="path10"
         style="fill:#ffffff;fill-opacity:1;stroke:none;stroke-width:0.529167;stroke-linecap:square"
         d="m 115.54119,61.841707 c 0,0 -6.94486,0.820147 -10.70891,1.407666 -1.25991,0.196656 -2.65106,0.42421 -3.65662,1.128097 -1.00555,0.703887 -1.512199,1.734399 -1.791106,2.559534 -0.294723,0.871926 -1.041115,2.911634 -1.700849,4.968578 -0.187802,0.585539 0.09652,0.979846 0.306102,1.224843 0.736925,0.86145 4.513813,0.356153 8.031553,0.301273 1.03021,-0.01607 0.96675,0.477366 0.82786,1.333769 -0.12861,0.793003 -0.8865,0.884001 -1.56683,1.008207 -0.46689,0.08523 -8.665749,1.615085 -9.404082,1.752865 -0.847042,2.571405 -1.755449,5.330941 -1.755449,5.330941 0,0 8.054151,-1.893086 12.269541,-3.012736 1.43576,-0.38135 2.52092,-0.690255 3.8194,-1.813843 1.26555,-1.095099 1.70302,-2.040546 2.03399,-3.281971 0.22744,-0.853109 0.62853,-2.137667 0.93379,-3.596679 0.18217,-0.870672 -0.10726,-1.722904 -0.60585,-2.032268 -0.77984,-0.483876 -4.13196,-0.051 -7.32752,0.04427 -0.93587,0.0279 -0.88774,-0.334031 -0.77824,-0.961698 0.1014,-0.5812 0.78874,-0.659287 1.40456,-0.760677 0.42793,-0.07045 8.12565,-1.362613 8.6186,-1.44539 0.5157,-2.038236 1.05006,-4.154786 1.05006,-4.154786 z"
         sodipodi:nodetypes="cssssssssccsssssssscc" /></g><g
       id="g72"
       style="display:inline;fill:#ffffff;fill-opacity:1"
       inkscape:label="form-surge-highlight"
       transform="translate(5.8748125,73.998631)"><path
         id="path70"
         style="display:inline;fill:url(#radialGradient67);fill-opacity:1;stroke:none;stroke-width:0.529167;stroke-linecap:square"
         d="m 171.99873,55.759391 -11.78016,0.942062 -3.73052,14.725199 11.85871,-1.099156 0.87747,-3.501078 -7.23884,0.634584 0.58498,-2.313035 5.89421,-0.475424 0.70694,-3.140893 -5.77898,0.271301 0.47801,-1.920814 7.26622,-0.684713 z m -13.54697,1.256255 c 0,0 -0.52723,0.0051 -7.93234,0.746207 -1.40435,0.140539 -2.59131,0.186915 -4.00492,1.374077 -1.26865,1.065421 -2.00254,4.2765 -2.47375,5.807914 -0.4712,1.531413 -1.63484,5.42058 -0.45682,6.755662 1.17801,1.335077 2.19682,1.062694 3.22564,0.949296 6.20192,-0.683607 7.9499,-0.9617 7.9499,-0.9617 l 2.16421,-8.607743 -6.36498,0.5333 c 0,0 -0.24226,0.785114 0.30747,1.609722 0.54974,0.824606 1.14567,0.981851 1.14567,0.981851 l -0.54984,2.316654 c 0,0 -0.29958,0.03395 -2.56883,0.24288 -0.30936,0.02848 -0.74626,0.117766 -0.98186,-0.196371 -0.23559,-0.314135 -0.0351,-0.774224 0.0558,-1.145667 0.7318,-2.9306 0.82628,-3.197821 1.26298,-4.816243 0.0753,-0.279233 0.18028,-0.669375 0.44958,-0.942062 0.33225,-0.336431 0.77018,-0.289272 1.17512,-0.32711 4.29303,-0.401198 5.92122,-0.618238 6.68538,-0.704868 z m -17.12144,1.874819 c -1.98164,-0.02228 -6.84334,0.637651 -9.58133,1.034563 l -3.82095,15.305012 4.56354,-0.70952 1.00873,-4.440039 1.71359,-0.135909 1.42472,3.874183 4.82347,-0.715203 -2.00608,-4.331002 c 0,0 1.01913,-0.303816 1.75132,-0.916223 0.94108,-0.78712 1.36482,-2.106033 2.0438,-4.71909 0.67898,-2.61306 -0.17176,-3.585523 -1.11828,-4.139801 -0.11832,-0.06929 -0.40001,-0.102447 -0.80253,-0.106971 z m -11.12955,1.466062 -0.0445,0.111622 -4.74596,0.700731 c -1.64268,6.34728 -2.48371,10.013831 -3.08457,10.847401 -0.69157,0.959411 -2.71672,1.358067 -3.1104,0.734322 -0.48671,-0.771155 0.63801,-4.280535 2.46651,-11.064958 l -4.7594,0.864029 c -2.07248,7.523234 -3.10979,10.963321 -2.75642,12.427149 0.43539,1.803631 1.93025,2.497739 5.1015,1.962156 3.1187,-0.526712 5.13403,-0.628894 6.90242,-3.291272 1.60796,-2.420842 2.27103,-6.333667 4.03077,-13.29118 z m -14.65958,1.48518 c 0,0 -6.94485,0.820148 -10.7089,1.407668 -1.25991,0.196654 -2.65107,0.424207 -3.65663,1.128096 -1.00555,0.703887 -1.512198,1.734397 -1.791108,2.559532 -0.29472,0.871927 -1.04093,2.911748 -1.70067,4.96869 -0.1878,0.585539 0.0963,0.979734 0.30593,1.224733 0.73692,0.861449 4.513808,0.356153 8.031548,0.301273 1.03021,-0.01606 0.96675,0.477364 0.82786,1.333767 -0.12861,0.793004 -0.8865,0.884002 -1.56683,1.008208 -0.46689,0.08523 -8.665748,1.615086 -9.404078,1.752865 -0.84704,2.571406 -1.75545,5.330942 -1.75545,5.330942 0,0 8.054148,-1.893086 12.269538,-3.012737 1.43576,-0.381349 2.52092,-0.690255 3.8194,-1.813843 1.26555,-1.0951 1.70302,-2.040546 2.03399,-3.281971 0.22744,-0.853107 0.62853,-2.137667 0.93379,-3.59668 0.18217,-0.87067 -0.10706,-1.72307 -0.60565,-2.032434 -0.77984,-0.483876 -4.13216,-0.05083 -7.32772,0.04444 -0.93587,0.0279 -0.88774,-0.334034 -0.77824,-0.9617 0.1014,-0.5812 0.78874,-0.659286 1.40456,-0.760677 0.42793,-0.07045 8.12565,-1.362612 8.6186,-1.44539 0.51523,-2.0364 1.0491,-4.150977 1.05006,-4.154784 z m 22.49579,0.933794 c 0.30445,0.005 0.53435,0.05233 0.61392,0.167947 0.31843,0.462637 -0.16386,2.85477 -1.10898,3.383775 -0.95883,0.536684 -3.14916,0.546219 -3.14916,0.546219 l 0.93741,-3.707268 c 0.20945,-0.04009 1.79344,-0.405579 2.70681,-0.390673 z"
         inkscape:label="surge" /><path
         id="path71"
         style="display:inline;fill:url(#radialGradient73);stroke:none;stroke-width:0.529167;stroke-linecap:square"
         d="m 162.92435,40.760822 -6.20582,0.130742 -5.16041,6.858496 -1.0449,-6.466789 -7.44709,0.457337 1.30638,1.567863 -3.85351,13.064319 4.50722,-0.326595 2.61276,-9.27592 1.37149,8.883696 0.91467,-0.130741 6.66265,-9.341033 -2.48202,8.884213 4.70307,-0.261483 z m -22.75468,1.650546 c -2.81656,-0.0846 -11.57449,1.11001 -11.57449,1.11001 l 1.45572,1.663981 -3.58789,13.310816 4.57595,-0.623734 1.09192,-4.419886 1.71566,-0.10387 1.35185,3.900021 4.83588,-0.624251 -1.92391,-4.367693 c 0,0 1.01194,-0.300791 1.76785,-0.883667 1.00062,-0.771572 1.40422,-2.07998 2.13217,-4.679818 0.72796,-2.599841 -0.10431,-3.587989 -1.04025,-4.159953 -0.11699,-0.0715 -0.39809,-0.10987 -0.80046,-0.121956 z m -25.20208,1.790071 -16.977264,2.209685 2.511474,2.712496 -4.218864,14.465785 6.027024,-1.305864 1.50688,-5.424475 6.52984,-1.00459 1.20561,-4.118612 -6.63009,0.903821 0.7028,-2.611727 7.93647,-1.205612 z m 8.65011,0.274402 c -2.67812,0.02845 -6.08996,0.833972 -7.50341,2.059306 -2.38723,2.069517 -4.26947,8.909269 -3.75843,11.418942 0.37022,1.818127 1.41204,2.85578 5.41621,2.22002 3.03539,-0.481941 5.54868,-0.618805 7.30343,-3.549138 0.90563,-1.512341 4.06457,-8.639646 1.98024,-11.284066 -0.48825,-0.619455 -1.83117,-0.882136 -3.43804,-0.865064 z m 13.18628,1.758033 c 0.30431,0.01069 0.53343,0.06223 0.61082,0.179317 0.30968,0.468537 -0.21765,2.851432 -1.17254,3.362586 -0.96875,0.518574 -3.15898,0.486792 -3.15898,0.486792 l 1.00665,-3.688664 c 0.21018,-0.03614 1.80112,-0.372095 2.71405,-0.340031 z m -15.05851,2.141471 c 0.48389,0.0081 0.9062,0.127288 1.15135,0.396358 0.52111,0.571983 -1.16077,5.959302 -1.69034,6.671428 -0.81105,1.090621 -3.6135,1.356091 -3.89433,0.536918 -0.33305,-0.971499 1.32913,-6.157579 1.79317,-6.705534 0.49991,-0.590317 1.71637,-0.914588 2.64015,-0.89917 z"
         inkscape:label="form" /></g></g></svg>
